<svg width="0" height="0" class="hidden">
  <symbol xmlns="http://www.w3.org/2000/svg" viewBox="0 0 64 64" id="menu-1">
    <title>Menu</title>
    <desc>A line styled icon from Orion Icon Library.</desc>
    <path data-name="layer2"
    fill="none" stroke="#202020" stroke-miterlimit="10" stroke-width="2" d="M2 8h60v8H2zm0 20h60v8H2z"
    stroke-linejoin="round" stroke-linecap="round" style="stroke:var(--layer1, #202020)"></path>
    <path data-name="layer1" fill="none" stroke="#202020" stroke-miterlimit="10"
    stroke-width="2" d="M2 48h60v8H2z" stroke-linejoin="round" stroke-linecap="round"
    style="stroke:var(--layer1, #202020)"></path>
  </symbol>
  <symbol xmlns="http://www.w3.org/2000/svg" viewBox="0 0 64 64" id="github-1">
    <title>Github</title>
    <desc>A line styled icon from Orion Icon Library.</desc>
    <path data-name="layer1"
    d="M32 1.952a30.019 30.019 0 0 0-9.469 58.5c1.5.281 2.063-.656 2.063-1.406v-5.625c-8.344 1.779-10.125-3.563-10.125-3.563-1.406-3.469-3.375-4.406-3.375-4.406-2.719-1.875.187-1.781.187-1.781 3 .188 4.594 3.094 4.594 3.094 2.719 4.594 7.031 3.281 8.719 2.531a6.5 6.5 0 0 1 1.875-4.031c-6.656-.75-13.688-3.375-13.688-14.812a11.5 11.5 0 0 1 3.094-8.063 11.217 11.217 0 0 1 .281-7.969s2.531-.844 8.25 3.094a28.944 28.944 0 0 1 7.5-1.031 28.4 28.4 0 0 1 7.5 1.031c5.719-3.844 8.25-3.094 8.25-3.094a11.217 11.217 0 0 1 .281 7.969 11.34 11.34 0 0 1 3.094 8.063c0 11.531-7.031 14.063-13.688 14.813a7.262 7.262 0 0 1 2.063 5.534v8.25c0 .844.562 1.687 2.063 1.406A30.019 30.019 0 0 0 32 1.952z"
    fill="none" stroke="#202020" stroke-linecap="round" stroke-miterlimit="10"
    stroke-width="2" stroke-linejoin="round" style="stroke:var(--layer1, #202020)"></path>
  </symbol>
  <symbol xmlns="http://www.w3.org/2000/svg" viewBox="0 0 64 64" id="twitter-1">
    <title>Twitter</title>
    <desc>A line styled icon from Orion Icon Library.</desc>
    <path data-name="layer1"
    d="M60.448 15.109a24.276 24.276 0 0 1-3.288.968.5.5 0 0 1-.451-.853 15.146 15.146 0 0 0 3.119-4.263.5.5 0 0 0-.677-.662 18.6 18.6 0 0 1-6.527 2.071 12.92 12.92 0 0 0-9-3.75A12.363 12.363 0 0 0 31.25 20.994a12.727 12.727 0 0 0 .281 2.719c-9.048-.274-19.61-4.647-25.781-12.249a.5.5 0 0 0-.83.073 12.475 12.475 0 0 0 2.956 14.79.5.5 0 0 1-.344.887 7.749 7.749 0 0 1-3.1-.8.5.5 0 0 0-.725.477 11.653 11.653 0 0 0 7.979 10.567.5.5 0 0 1-.09.964 12.567 12.567 0 0 1-2.834 0 .506.506 0 0 0-.536.635c.849 3.282 5.092 7.125 9.839 7.652a.5.5 0 0 1 .267.87 20.943 20.943 0 0 1-14 4.577.5.5 0 0 0-.255.942 37.29 37.29 0 0 0 17.33 4.266 34.5 34.5 0 0 0 34.687-36.182v-.469a21.11 21.11 0 0 0 4.934-4.839.5.5 0 0 0-.58-.765z"
    fill="none" stroke="#202020" stroke-linecap="round" stroke-miterlimit="10"
    stroke-width="2" stroke-linejoin="round" style="stroke:var(--layer1, #202020)"></path>
  </symbol>
</svg>